<svg width="24" height="30" viewBox="0 0 24 30" fill="none" xmlns="http://www.w3.org/2000/svg">
<path d="M12 0.09375C11.375 0.09375 10.9375 0.53125 10.9375 1.125V22.8281L11.0469 26.1875L6.84375 21.6562L2.10938 16.9688C1.9375 16.7812 1.64062 16.6875 1.35938 16.6875C0.78125 16.6875 0.34375 17.125 0.34375 17.7188C0.34375 18 0.453125 18.25 0.671875 18.4844L11.2031 29C11.4375 29.2344 11.7031 29.3594 12 29.3594C12.2812 29.3594 12.5469 29.2344 12.7812 29L23.3125 18.4844C23.5469 18.25 23.6406 18 23.6406 17.7188C23.6406 17.125 23.2031 16.6875 22.625 16.6875C22.3438 16.6875 22.0625 16.7812 21.875 16.9688L17.1562 21.6562L12.9531 26.1719L13.0469 22.8281V1.125C13.0469 0.53125 12.6094 0.09375 12 0.09375Z" fill="white"/>
</svg>
