<svg width="10" height="10" viewBox="0 0 10 10" fill="none" xmlns="http://www.w3.org/2000/svg">
<path opacity="0.25" d="M0.611328 8.66602C0.458984 8.81836 0.453125 9.07031 0.611328 9.22266C0.769531 9.38086 1.02148 9.38086 1.17383 9.22266L5.05859 5.34375L8.9375 9.22266C9.08984 9.38086 9.34766 9.38086 9.5 9.22266C9.65234 9.07031 9.65234 8.81836 9.5 8.66602L5.61523 4.78125L9.5 0.896484C9.65234 0.744141 9.6582 0.486328 9.5 0.333984C9.3418 0.181641 9.08984 0.181641 8.9375 0.333984L5.05859 4.21875L1.17383 0.333984C1.02148 0.181641 0.763672 0.175781 0.611328 0.333984C0.458984 0.492188 0.458984 0.744141 0.611328 0.896484L4.49609 4.78125L0.611328 8.66602Z" fill="black"/>
</svg>
