<svg width="13" height="12" viewBox="0 0 13 12" fill="none" xmlns="http://www.w3.org/2000/svg">
<path fill-rule="evenodd" clip-rule="evenodd" d="M12.285 0H1.60955C1.24374 0 0.947266 0.296477 0.947266 0.662285V11.3377C0.947266 11.7035 1.24374 12 1.60955 12H7.35687V7.35299H5.79301V5.54193H7.35687V4.20634C7.35687 2.65643 8.30349 1.81245 9.68615 1.81245C10.3485 1.81245 10.9177 1.86173 11.0836 1.88376V3.50355L10.1246 3.504C9.37268 3.504 9.22705 3.86131 9.22705 4.38565V5.54193H11.0204L10.7869 7.35299H9.22705V12H12.285C12.6507 12 12.9473 11.7035 12.9473 11.3377V0.662285C12.9473 0.296477 12.6507 0 12.285 0" fill="white"/>
<mask id="mask0" mask-type="alpha" maskUnits="userSpaceOnUse" x="0" y="0" width="13" height="12">
<path fill-rule="evenodd" clip-rule="evenodd" d="M12.285 0H1.60955C1.24374 0 0.947266 0.296477 0.947266 0.662285V11.3377C0.947266 11.7035 1.24374 12 1.60955 12H7.35687V7.35299H5.79301V5.54193H7.35687V4.20634C7.35687 2.65643 8.30349 1.81245 9.68615 1.81245C10.3485 1.81245 10.9177 1.86173 11.0836 1.88376V3.50355L10.1246 3.504C9.37268 3.504 9.22705 3.86131 9.22705 4.38565V5.54193H11.0204L10.7869 7.35299H9.22705V12H12.285C12.6507 12 12.9473 11.7035 12.9473 11.3377V0.662285C12.9473 0.296477 12.6507 0 12.285 0Z" fill="white"/>
</mask>
<g mask="url(#mask0)">
<rect x="0.947266" width="12" height="12" fill="white"/>
</g>
</svg>
