<svg width="12" height="12" viewBox="0 0 12 12" fill="none" xmlns="http://www.w3.org/2000/svg">
<path fill-rule="evenodd" clip-rule="evenodd" d="M6 0C4.372 0 4.16667 0.00666667 3.52667 0.036C2.888 0.0653333 2.452 0.166667 2.07 0.314667C1.67533 0.468 1.34 0.673333 1.00667 1.00667C0.673333 1.34 0.469333 1.67533 0.315333 2.06933C0.166667 2.45133 0.0646667 2.88667 0.036 3.52667C0.00666667 4.16667 0 4.37 0 6C0 7.63 0.00666667 7.83333 0.036 8.47333C0.0653333 9.112 0.166667 9.548 0.316 9.92933C0.469333 10.324 0.673333 10.6593 1.00733 10.9927C1.34067 11.326 1.676 11.5313 2.07 11.6847C2.452 11.8327 2.888 11.934 3.52667 11.9633C4.16667 11.9933 4.37 12 6 12C7.63 12 7.83333 11.9933 8.47333 11.964C9.112 11.9347 9.54867 11.8333 9.93067 11.6853C10.324 11.532 10.6593 11.3253 10.9927 10.992C11.326 10.6587 11.5307 10.324 11.684 9.93C11.832 9.548 11.9333 9.112 11.964 8.47333C11.992 7.83333 11.9993 7.62933 11.9993 6C11.9993 4.37067 11.9927 4.16667 11.9633 3.52667C11.9333 2.88667 11.832 2.45133 11.6833 2.07C11.53 1.67533 11.3253 1.34067 10.992 1.00667C10.6573 0.673333 10.3233 0.468 9.92867 0.314667C9.54667 0.166667 9.11133 0.0653333 8.47333 0.036C7.83333 0.00666667 7.628 0 5.998 0H6ZM5.462 1.08133H6C7.60267 1.08133 7.79333 1.08667 8.42533 1.116C9.01 1.14267 9.32733 1.24 9.53866 1.32267C9.81866 1.43133 10.0187 1.56133 10.2287 1.77133C10.4387 1.98133 10.5687 2.18133 10.6773 2.46133C10.76 2.67267 10.8573 2.99 10.884 3.57467C10.9127 4.208 10.9193 4.39733 10.9193 5.99867C10.9193 7.6 10.9127 7.79 10.8833 8.42267C10.8567 9.00733 10.7593 9.32467 10.6767 9.536C10.568 9.816 10.438 10.016 10.228 10.2253C10.018 10.4353 9.81866 10.5653 9.53866 10.674C9.32666 10.7573 9.00867 10.854 8.424 10.8807C7.79067 10.91 7.60133 10.9167 5.99933 10.9167C4.398 10.9167 4.208 10.91 3.57533 10.8813C2.99067 10.8547 2.67267 10.7573 2.462 10.6747C2.182 10.5667 1.982 10.4367 1.77133 10.2267C1.56133 10.0167 1.43133 9.81733 1.322 9.53667C1.24 9.326 1.142 9.008 1.11533 8.42333C1.08667 7.79 1.082 7.60067 1.082 5.99867C1.082 4.396 1.08667 4.20733 1.11533 3.57467C1.142 2.99 1.24 2.672 1.322 2.46133C1.43067 2.18133 1.562 1.98133 1.77133 1.77067C1.98133 1.56067 2.18133 1.43067 2.46133 1.322C2.67267 1.24 2.99067 1.142 3.57467 1.11533C4.128 1.09067 4.34333 1.082 5.46133 1.082V1.08333L5.462 1.08133ZM9.20333 2.07733C8.806 2.07733 8.48333 2.39933 8.48333 2.79733C8.48333 3.19467 8.806 3.51733 9.20333 3.51733C9.60067 3.51733 9.92333 3.19467 9.92333 2.79733C9.92333 2.4 9.60067 2.07733 9.20333 2.07733ZM6 2.91867C4.3 2.91867 2.92 4.29867 2.92 6C2.92 7.70133 4.298 9.08 6 9.08C7.702 9.08 9.08133 7.70133 9.08133 6C9.08133 4.29867 7.70133 2.91867 6.00133 2.91867H6ZM6 4C7.10533 4 8 4.89533 8 6C8 7.10467 7.10533 8 6 8C4.896 8 4 7.10467 4 6C4 4.89533 4.896 4 6 4Z" fill="black"/>
</svg>
