<svg width="13" height="12" viewBox="0 0 13 12" fill="none" xmlns="http://www.w3.org/2000/svg">
<g clip-path="url(#clip0)">
<path fill-rule="evenodd" clip-rule="evenodd" d="M6.94726 0C5.31927 0 5.11393 0.00666667 4.47393 0.036C3.83527 0.0653333 3.39927 0.166667 3.01727 0.314667C2.6226 0.468 2.28727 0.673333 1.95393 1.00667C1.6206 1.34 1.4166 1.67533 1.2626 2.06933C1.11393 2.45133 1.01193 2.88667 0.983266 3.52667C0.953932 4.16667 0.947266 4.37 0.947266 6C0.947266 7.63 0.953932 7.83333 0.983266 8.47333C1.0126 9.112 1.11393 9.548 1.26327 9.92933C1.4166 10.324 1.6206 10.6593 1.9546 10.9927C2.28793 11.326 2.62327 11.5313 3.01727 11.6847C3.39927 11.8327 3.83527 11.934 4.47393 11.9633C5.11393 11.9933 5.31727 12 6.94726 12C8.57726 12 8.7806 11.9933 9.4206 11.964C10.0593 11.9347 10.4959 11.8333 10.8779 11.6853C11.2713 11.532 11.6066 11.3253 11.9399 10.992C12.2733 10.6587 12.4779 10.324 12.6313 9.93C12.7793 9.548 12.8806 9.112 12.9113 8.47333C12.9393 7.83333 12.9466 7.62933 12.9466 6C12.9466 4.37067 12.9399 4.16667 12.9106 3.52667C12.8806 2.88667 12.7793 2.45133 12.6306 2.07C12.4773 1.67533 12.2726 1.34067 11.9393 1.00667C11.6046 0.673333 11.2706 0.468 10.8759 0.314667C10.4939 0.166667 10.0586 0.0653333 9.4206 0.036C8.7806 0.00666667 8.57526 0 6.94526 0H6.94726ZM6.40926 1.08133H6.94726C8.54993 1.08133 8.7406 1.08667 9.3726 1.116C9.95726 1.14267 10.2746 1.24 10.4859 1.32267C10.7659 1.43133 10.9659 1.56133 11.1759 1.77133C11.3859 1.98133 11.5159 2.18133 11.6246 2.46133C11.7073 2.67267 11.8046 2.99 11.8313 3.57467C11.8599 4.208 11.8666 4.39733 11.8666 5.99867C11.8666 7.6 11.8599 7.79 11.8306 8.42267C11.8039 9.00733 11.7066 9.32467 11.6239 9.536C11.5153 9.816 11.3853 10.016 11.1753 10.2253C10.9653 10.4353 10.7659 10.5653 10.4859 10.674C10.2739 10.7573 9.95593 10.854 9.37126 10.8807C8.73793 10.91 8.5486 10.9167 6.9466 10.9167C5.34526 10.9167 5.15526 10.91 4.5226 10.8813C3.93793 10.8547 3.61993 10.7573 3.40927 10.6747C3.12927 10.5667 2.92927 10.4367 2.7186 10.2267C2.5086 10.0167 2.3786 9.81733 2.26927 9.53667C2.18727 9.326 2.08927 9.008 2.0626 8.42333C2.03393 7.79 2.02927 7.60067 2.02927 5.99867C2.02927 4.396 2.03393 4.20733 2.0626 3.57467C2.08927 2.99 2.18727 2.672 2.26927 2.46133C2.37793 2.18133 2.50927 1.98133 2.7186 1.77067C2.9286 1.56067 3.1286 1.43067 3.4086 1.322C3.61993 1.24 3.93793 1.142 4.52193 1.11533C5.07526 1.09067 5.2906 1.082 6.4086 1.082V1.08333L6.40926 1.08133ZM10.1506 2.07733C9.75326 2.07733 9.4306 2.39933 9.4306 2.79733C9.4306 3.19467 9.75326 3.51733 10.1506 3.51733C10.5479 3.51733 10.8706 3.19467 10.8706 2.79733C10.8706 2.4 10.5479 2.07733 10.1506 2.07733V2.07733ZM6.94726 2.91867C5.24727 2.91867 3.86727 4.29867 3.86727 6C3.86727 7.70133 5.24527 9.08 6.94726 9.08C8.64926 9.08 10.0286 7.70133 10.0286 6C10.0286 4.29867 8.6486 2.91867 6.9486 2.91867H6.94726ZM6.94726 4C8.0526 4 8.94726 4.89533 8.94726 6C8.94726 7.10467 8.0526 8 6.94726 8C5.84326 8 4.94727 7.10467 4.94727 6C4.94727 4.89533 5.84326 4 6.94726 4Z" fill="white"/>
</g>
<defs>
<clipPath id="clip0">
<rect width="12" height="12" fill="white" transform="translate(0.947266)"/>
</clipPath>
</defs>
</svg>
