<svg width="500" height="19" viewBox="0 0 500 19" fill="none" xmlns="http://www.w3.org/2000/svg">
<path d="M157.436 10.8923V18.8521H173.398C179.472 18.8521 184.416 13.9506 184.416 7.95978V0H168.454C162.379 0 157.436 4.90155 157.436 10.8923ZM183.745 4.48261V6.40972C183.745 10.8085 180.1 14.4114 175.618 14.4114H158.064V12.4843C158.064 8.08546 161.709 4.48261 166.192 4.48261H183.745Z" fill="black"/>
<path d="M441.516 10.8923V18.8521H457.478C463.552 18.8521 468.496 13.9506 468.496 7.95978V0H452.534C446.46 0 441.516 4.90155 441.516 10.8923ZM467.868 4.48261V6.40972C467.868 10.8085 464.223 14.4114 459.74 14.4114H442.187V12.4843C442.187 8.08546 445.831 4.48261 450.314 4.48261H467.868Z" fill="black"/>
<path d="M31.4622 10.8923V18.8521H32.1325V12.1072H57.8132V18.8521H58.4835V0H42.5221C36.4056 0 31.4622 4.90155 31.4622 10.8923ZM57.8132 4.48261V11.4369H32.1325C32.3419 7.24759 35.9448 4.48261 40.2179 4.48261H57.8132Z" fill="black"/>
<path d="M188.982 10.8923V18.8521H189.652V12.4843C189.652 8.08546 193.297 4.48261 197.78 4.48261H215.333V18.8521H216.003V0H200.042C193.925 0 188.982 4.90155 188.982 10.8923Z" fill="black"/>
<path d="M373.439 6.36783C373.439 10.7667 369.795 14.3695 365.312 14.3695H347.759V0H347.088V18.8521H363.05C369.124 18.8521 374.068 13.9506 374.068 7.95978V0H373.397V6.36783H373.439Z" fill="black"/>
<path d="M13.8249 7.1638V0H11.018C4.94344 0 0 4.90155 0 10.8923V18.8521H0.670298V12.4843C0.670298 8.08546 4.31504 4.48261 8.79765 4.48261H13.1965V18.8521H13.8249V12.4843C13.8249 8.08546 17.4696 4.48261 21.9522 4.48261H26.3511V18.8521H27.0214V0H24.2145C19.5224 0 15.3749 2.93255 13.8249 7.1638Z" fill="black"/>
<path d="M139.715 7.1638V0H136.908C130.834 0 125.89 4.90155 125.89 10.8923V18.8521H126.56V12.4843C126.56 8.08546 130.205 4.48261 134.688 4.48261H139.087V18.8521H139.757V12.4843C139.757 8.08546 143.402 4.48261 147.884 4.48261H152.283V18.8521H152.953V0H150.147C145.413 0 141.265 2.93255 139.715 7.1638Z" fill="black"/>
<path d="M246.669 0L237.285 7.24759C236.95 7.2057 236.573 7.2057 236.238 7.2057H220.905V0H220.235V18.8521H220.905V11.6883H238.458C242.815 11.6883 246.376 14.3695 246.586 18.6426V18.894H247.214V18.0561C247.214 12.8613 243.36 8.33682 238.165 7.41517L247.759 0H246.669Z" fill="black"/>
<path d="M284.206 10.4315V10.8923C284.206 10.9342 284.206 10.9761 284.206 11.018V11.1437C284.206 11.6464 284.332 12.0235 284.625 12.2748C285.086 12.6938 285.84 12.6519 287.013 12.2329C287.222 12.1491 287.558 12.0235 287.935 11.8978C300.545 7.2057 307.96 5.57185 310.054 6.99623C310.306 7.1638 310.473 7.41517 310.515 7.70842C310.515 7.75031 310.515 7.79221 310.515 7.8341C310.515 7.91789 310.515 8.04357 310.515 8.08546C309.971 12.0235 306.493 14.3695 302.43 14.3695H284.206V18.8521H300.168C306.242 18.8521 311.186 13.9506 311.186 7.91789C311.186 7.33138 310.934 6.82865 310.39 6.45161C308.923 5.44617 305.237 5.73942 299.497 7.33138C294.889 8.63008 290.029 10.4315 287.683 11.2694L287.474 11.3532C287.18 11.4788 286.971 11.5626 286.762 11.6045C285.882 11.9397 285.253 11.9816 285.002 11.7721C284.876 11.6883 284.834 11.5207 284.834 11.2694C284.834 11.1437 284.834 11.018 284.834 10.8923C285.379 6.95434 288.94 4.48261 292.962 4.48261H311.186V0H295.224C289.275 0 284.457 4.60829 284.206 10.4315Z" fill="black"/>
<path d="M473.021 10.4315V10.8923C473.021 10.9342 473.021 10.9761 473.021 11.018V11.1437C473.021 11.6464 473.146 12.0235 473.439 12.2748C473.9 12.6938 474.654 12.6519 475.827 12.2329C476.037 12.1491 476.372 12.0235 476.749 11.8978C489.359 7.2057 496.774 5.57185 498.869 6.99623C499.12 7.1638 499.288 7.41517 499.33 7.70842C499.33 7.75031 499.33 7.79221 499.33 7.8341C499.33 7.91789 499.33 8.04357 499.33 8.08546C498.785 12.0235 495.308 14.3695 491.244 14.3695H473.021V18.8521H488.982C495.057 18.8521 500 13.9506 500 7.91789C500 7.33138 499.749 6.82865 499.204 6.45161C497.738 5.44617 494.051 5.73942 488.312 7.33138C483.703 8.63008 478.844 10.4315 476.498 11.2694L476.288 11.3532C475.995 11.4788 475.785 11.5626 475.576 11.6045C474.696 11.9397 474.068 11.9816 473.816 11.7721C473.691 11.6883 473.649 11.5207 473.649 11.2694C473.649 11.1437 473.649 11.018 473.649 10.8923C474.194 6.95434 477.755 4.48261 481.776 4.48261H500V0H484.039C478.09 0 473.272 4.60829 473.021 10.4315Z" fill="black"/>
<path d="M315.668 4.48261H328.823V18.8521H329.493V4.48261H342.648V0H315.668V4.48261Z" fill="black"/>
<path d="M410.054 4.48261H423.209V14.4114H410.054V18.8521H437.034V14.4114H423.879V4.48261H437.034V0H410.054V4.48261Z" fill="black"/>
<path d="M89.0657 6.20025C87.1805 2.47172 83.2006 0 79.1788 0H62.9241V18.8521H79.1788C83.2844 18.8521 87.2643 16.2966 89.1495 12.5262L89.1914 12.4843C89.6941 11.5626 89.9454 10.5153 89.9454 9.46795C89.9454 8.29493 89.6522 7.1638 89.0657 6.20025ZM89.1914 9.8031C88.9819 12.3586 86.2169 14.3695 83.6195 14.3695H81.5667H63.6782H63.5944V9.42606V4.48261H81.441H83.5776C86.2169 4.48261 88.9819 6.5354 89.1495 9.09091C89.1495 9.21659 89.1495 9.30038 89.1495 9.42606C89.1914 9.55174 89.1914 9.67742 89.1914 9.8031Z" fill="black"/>
<path d="M404.734 6.20025C402.807 2.47172 398.827 0 394.805 0H378.551V18.8521H394.805C398.911 18.8521 402.891 16.2966 404.776 12.5262L404.818 12.4843C405.321 11.5626 405.572 10.5153 405.572 9.46795C405.572 8.29493 405.279 7.1638 404.734 6.20025ZM404.818 9.8031C404.608 12.3586 401.843 14.3695 399.246 14.3695H397.193H379.347H379.263V9.42606V4.48261H397.109H399.246C401.885 4.48261 404.65 6.5354 404.818 9.09091C404.818 9.21659 404.818 9.30038 404.818 9.42606C404.86 9.55174 404.818 9.67742 404.818 9.8031Z" fill="black"/>
</svg>
