<svg width="13" height="12" viewBox="0 0 13 12" fill="none" xmlns="http://www.w3.org/2000/svg">
<g clip-path="url(#clip0)">
<path d="M6.05244 0.0197754C2.74894 0.0197754 0.0708008 2.69785 0.0708008 6.00135C0.0708008 9.30499 2.74894 11.9828 6.05244 11.9828C9.3563 11.9828 12.0342 9.30499 12.0342 6.00135C12.0342 2.69806 9.3563 0.0200611 6.05237 0.0200611L6.05244 0.0197754ZM8.79559 8.64692C8.68844 8.82263 8.45844 8.87835 8.28273 8.77049C6.8783 7.91263 5.1103 7.71835 3.02816 8.19406C2.82751 8.23978 2.62752 8.11406 2.5818 7.91335C2.53587 7.71263 2.66109 7.51263 2.86223 7.46692C5.1408 6.94613 7.0953 7.17049 8.67201 8.13406C8.84773 8.24192 8.90344 8.4712 8.79559 8.64692ZM9.52773 7.01799C9.39273 7.23763 9.10559 7.30692 8.8863 7.17192C7.27844 6.18342 4.82752 5.8972 2.92573 6.47449C2.67909 6.54899 2.41859 6.40999 2.34373 6.16378C2.26944 5.91713 2.40852 5.65713 2.65473 5.58213C4.82709 4.92299 7.52773 5.24228 9.37416 6.37692C9.59344 6.51192 9.66273 6.79906 9.52773 7.01806V7.01799ZM9.59059 5.32199C7.66273 4.17692 4.48202 4.07163 2.64137 4.63028C2.3458 4.71992 2.03323 4.55306 1.94366 4.25749C1.85409 3.96178 2.0208 3.64942 2.31659 3.55956C4.42951 2.91813 7.94201 3.04206 10.1616 4.3597C10.428 4.51749 10.5152 4.86085 10.3573 5.12635C10.2002 5.3922 9.85587 5.47985 9.59087 5.32199H9.59059Z" fill="black"/>
</g>
<defs>
<clipPath id="clip0">
<rect width="12" height="12" fill="white" transform="translate(0.0527344)"/>
</clipPath>
</defs>
</svg>
