<svg width="13" height="12" viewBox="0 0 13 12" fill="none" xmlns="http://www.w3.org/2000/svg">
<path fill-rule="evenodd" clip-rule="evenodd" d="M11.7261 4.14458C11.7261 4.03964 11.7239 3.93517 11.719 3.83127C12.1997 3.48923 12.6176 3.06243 12.9473 2.57647C12.5061 2.76935 12.0314 2.89938 11.5334 2.95796C12.0417 2.65803 12.4319 2.18327 12.616 1.61741C12.1402 1.895 11.6135 2.09689 11.0527 2.20561C10.6035 1.73459 9.96363 1.43994 9.25563 1.43994C7.89589 1.43994 6.79328 2.5253 6.79328 3.86326C6.79328 4.05348 6.81493 4.23837 6.85712 4.41584C4.81103 4.31458 2.99663 3.35018 1.78247 1.8838C1.57083 2.24186 1.44906 2.65803 1.44906 3.10184C1.44906 3.94268 1.8837 4.68492 2.54461 5.11914C2.14083 5.10691 1.76139 4.99767 1.42957 4.81594C1.42899 4.82606 1.42899 4.83621 1.42899 4.84685C1.42899 6.02071 2.27778 7.00056 3.40419 7.22277C3.19746 7.27815 2.97983 7.30801 2.75519 7.30801C2.59659 7.30801 2.44232 7.29256 2.29237 7.2643C2.60581 8.22715 3.51464 8.92781 4.59234 8.94756C3.74955 9.59756 2.68808 9.98491 1.53459 9.98491C1.33592 9.98491 1.13999 9.97376 0.947266 9.95137C2.03691 10.6387 3.33061 11.0399 4.72117 11.0399C9.24968 11.0399 11.7261 7.3469 11.7261 4.14458Z" fill="white"/>
<mask id="mask0" mask-type="alpha" maskUnits="userSpaceOnUse" x="0" y="1" width="13" height="11">
<path fill-rule="evenodd" clip-rule="evenodd" d="M11.7261 4.14458C11.7261 4.03964 11.7239 3.93517 11.719 3.83127C12.1997 3.48923 12.6176 3.06243 12.9473 2.57647C12.5061 2.76935 12.0314 2.89938 11.5334 2.95796C12.0417 2.65803 12.4319 2.18327 12.616 1.61741C12.1402 1.895 11.6135 2.09689 11.0527 2.20561C10.6035 1.73459 9.96363 1.43994 9.25563 1.43994C7.89589 1.43994 6.79328 2.5253 6.79328 3.86326C6.79328 4.05348 6.81493 4.23837 6.85712 4.41584C4.81103 4.31458 2.99663 3.35018 1.78247 1.8838C1.57083 2.24186 1.44906 2.65803 1.44906 3.10184C1.44906 3.94268 1.8837 4.68492 2.54461 5.11914C2.14083 5.10691 1.76139 4.99767 1.42957 4.81594C1.42899 4.82606 1.42899 4.83621 1.42899 4.84685C1.42899 6.02071 2.27778 7.00056 3.40419 7.22277C3.19746 7.27815 2.97983 7.30801 2.75519 7.30801C2.59659 7.30801 2.44232 7.29256 2.29237 7.2643C2.60581 8.22715 3.51464 8.92781 4.59234 8.94756C3.74955 9.59756 2.68808 9.98491 1.53459 9.98491C1.33592 9.98491 1.13999 9.97376 0.947266 9.95137C2.03691 10.6387 3.33061 11.0399 4.72117 11.0399C9.24968 11.0399 11.7261 7.3469 11.7261 4.14458Z" fill="white"/>
</mask>
<g mask="url(#mask0)">
<rect x="0.947266" width="12" height="12" fill="white"/>
</g>
</svg>
