<svg width="18" height="12" viewBox="0 0 18 12" fill="none" xmlns="http://www.w3.org/2000/svg">
<path fill-rule="evenodd" clip-rule="evenodd" d="M16.1457 0.367059C16.8761 0.564706 17.452 1.14353 17.6486 1.87765C18.0138 3.21882 17.9998 6.01412 17.9998 6.01412C17.9998 6.01412 17.9998 8.7953 17.6486 10.1365C17.452 10.8706 16.8761 11.4494 16.1457 11.6471C14.8112 12 9.47353 12 9.47353 12C9.47353 12 4.14988 12 2.80141 11.6329C2.07099 11.4353 1.49508 10.8565 1.29843 10.1224C0.947266 8.79529 0.947266 6 0.947266 6C0.947266 6 0.947266 3.21882 1.29843 1.87765C1.49508 1.14353 2.08504 0.550588 2.80141 0.352941C4.13584 0 9.47353 0 9.47353 0C9.47353 0 14.8112 0 16.1457 0.367059ZM7.77394 3.43058L12.2127 6L7.77394 8.56941V3.43058Z" fill="white"/>
</svg>
