<svg width="18" height="12" viewBox="0 0 18 12" fill="none" xmlns="http://www.w3.org/2000/svg">
<path fill-rule="evenodd" clip-rule="evenodd" d="M15.1984 0.367059C15.9288 0.564706 16.5047 1.14353 16.7014 1.87765C17.0666 3.21882 17.0525 6.01412 17.0525 6.01412C17.0525 6.01412 17.0525 8.7953 16.7014 10.1365C16.5047 10.8706 15.9288 11.4494 15.1984 11.6471C13.864 12 8.52627 12 8.52627 12C8.52627 12 3.20262 12 1.85415 11.6329C1.12373 11.4353 0.547816 10.8565 0.351164 10.1224C0 8.79529 0 6 0 6C0 6 0 3.21882 0.351164 1.87765C0.547816 1.14353 1.13777 0.550588 1.85415 0.352941C3.18857 0 8.52627 0 8.52627 0C8.52627 0 13.864 0 15.1984 0.367059ZM6.82667 3.43058L11.2654 6L6.82667 8.56941V3.43058Z" fill="black"/>
</svg>
