<svg width="1038" height="79" viewBox="0 0 1038 79" fill="none" xmlns="http://www.w3.org/2000/svg">
<path d="M940.668 76.7033C919.632 76.7033 902.692 59.7633 902.581 38.7268C902.581 17.6903 919.742 0.528931 940.779 0.528931C961.705 0.528931 978.755 17.5796 978.866 38.5054C978.977 59.5419 961.815 76.7033 940.668 76.7033ZM970.783 48.2486C970.673 42.7127 968.569 36.5124 964.915 30.7551C957.497 19.0189 947.2 10.9365 933.25 8.7221C919.189 6.50773 909.445 16.0295 910.774 30.0908C911.881 41.2733 917.528 50.0201 925.61 57.3275C932.807 63.8599 941.111 68.2887 951.186 68.5101C962.922 69.0637 970.894 61.2027 970.783 48.2486Z" fill="white"/>
<path d="M608.734 76.4819C608.734 72.1639 608.734 67.7352 608.734 62.9743C609.841 62.8636 610.948 62.8636 611.945 62.8636C621.688 62.8636 631.542 62.9743 641.285 62.8636C650.807 62.7528 656.675 53.1203 652.136 45.1486C649.368 40.277 644.718 38.0626 639.292 37.6197C635.306 37.2876 631.21 37.2876 627.224 36.734C617.813 35.2947 608.623 28.9837 608.734 15.9189C608.734 11.933 608.734 7.94718 608.623 4.07204C608.623 2.52198 609.066 1.96838 610.727 1.96838C626.56 1.96838 642.392 1.96838 658.336 1.96838C660.107 1.96838 660.55 2.6327 660.55 4.29347C660.44 7.28287 660.44 10.383 660.55 13.3724C660.661 15.5868 659.886 16.1404 657.672 16.1404C645.825 16.0296 634.089 16.0296 622.242 16.1404C617.702 16.1404 615.266 17.6904 614.27 21.1227C613.273 24.2228 614.27 26.9908 617.259 29.4266C621.688 33.0803 626.892 34.1875 632.428 34.6303C632.871 34.6303 633.314 34.7411 633.756 34.6303C651.471 33.5232 658.004 44.595 659.997 58.6563C660.772 64.0815 660.329 69.7281 660.329 75.264C660.329 75.9283 659.222 77.0355 658.668 77.0355C642.392 77.1462 626.006 77.0355 609.73 77.0355C609.398 76.8141 609.177 76.5927 608.734 76.4819Z" fill="white"/>
<path d="M986.395 1.85754C987.391 1.85754 988.277 1.74683 989.163 1.74683C1004.33 1.74683 1019.61 1.74683 1034.78 1.74683C1037.1 1.74683 1038.1 2.1897 1037.99 4.73623C1037.77 7.61491 1037.77 10.4936 1037.99 13.2615C1038.1 15.3652 1037.33 15.9188 1035.33 15.9188C1023.49 15.8081 1011.53 15.8081 999.681 15.9188C994.809 15.9188 992.152 18.0224 991.488 22.119C990.934 25.662 992.927 27.8764 995.474 29.7586C999.902 32.9694 1005 34.0766 1010.31 34.4088C1010.75 34.4088 1011.2 34.5195 1011.64 34.4088C1029.02 33.4123 1035.78 44.8163 1037.55 58.7668C1038.21 64.0813 1037.77 69.3958 1037.88 74.821C1037.88 76.1497 1037.55 76.9247 1036 76.9247C1019.5 76.9247 1003 76.9247 986.284 76.9247C986.284 72.2745 986.284 67.8458 986.284 62.8634C987.281 62.8634 988.388 62.8634 989.384 62.8634C999.017 62.8634 1008.76 62.8634 1018.39 62.8634C1024.04 62.8634 1028.36 59.874 1030.13 55.2239C1032.79 47.9164 1029.02 40.8305 1020.72 38.3946C1018.06 37.6196 1015.29 37.7303 1012.52 37.3982C1008.65 36.8446 1004.55 36.7339 1000.79 35.7374C992.484 33.4123 987.17 27.9871 986.284 19.2403C985.952 13.483 986.395 7.72562 986.395 1.85754Z" fill="white"/>
<path d="M807.695 39.2806C807.695 27.7659 807.806 16.2512 807.695 4.73643C807.695 2.41134 808.359 1.74703 810.684 1.85775C819.542 2.18991 828.289 1.30416 837.036 3.73996C866.487 12.1546 871.248 45.1487 856.522 63.4172C850.986 70.2818 843.457 74.5998 834.821 75.5963C826.407 76.7035 817.881 76.482 809.467 76.8142C807.363 76.9249 807.806 75.3748 807.806 74.1569C807.695 62.5315 807.695 50.9061 807.695 39.2806ZM810.242 62.6422C819.653 62.6422 828.732 62.7529 837.811 62.5315C843.014 62.4208 847.665 60.5386 851.983 57.6599C863.276 50.2417 865.712 35.4055 857.186 25.4408C852.315 19.7941 845.782 16.4726 838.364 16.0297C829.174 15.5868 819.985 15.919 810.795 15.8083C810.685 15.8083 810.463 16.0297 810.242 16.1404C810.242 31.641 810.242 46.9202 810.242 62.6422Z" fill="white"/>
<path d="M691.219 15.9188C694.984 18.9082 698.97 21.7869 702.402 25.1084C705.059 27.5442 706.056 30.9765 706.056 34.6302C706.056 47.9164 706.056 61.2027 706.056 74.4889C706.056 76.2604 705.613 77.0354 703.731 76.9247C700.52 76.814 697.309 76.814 694.098 76.9247C692.659 76.9247 691.884 76.5925 691.884 74.9318C691.994 68.7315 691.994 62.5313 691.994 56.4418C691.994 52.013 693.766 48.47 696.977 45.3699C698.97 43.4877 700.852 41.2733 702.07 38.9482C704.506 33.6338 702.402 27.8764 696.977 23.7798C690.444 18.6868 682.694 17.026 674.722 16.251C668.965 15.6974 668.965 15.8081 668.965 9.94C668.965 7.39347 668.965 4.84694 668.965 1.96826C670.294 1.85754 671.179 1.85754 672.176 1.85754C690.112 1.85754 708.159 1.85754 726.096 1.74683C728.753 1.74683 729.417 2.63257 729.307 5.06838C729.085 7.72563 729.085 10.3829 729.307 13.0401C729.417 15.3652 728.753 16.0295 726.428 16.0295C715.577 15.9188 704.727 16.0295 693.766 16.0295C692.88 15.9188 691.884 15.9188 691.219 15.9188Z" fill="white"/>
<path d="M751.229 1.74683C749.9 6.72916 748.571 11.1579 747.464 15.5866C744.586 26.8799 743.035 38.3947 743.921 50.1308C744.475 56.9954 746.246 63.417 750.896 68.6208C758.093 76.7033 774.037 78.1426 782.341 71.278C787.434 67.0707 788.984 61.2027 789.205 55.0024C789.537 44.0413 786.659 33.6338 782.894 23.4477C780.569 17.1367 777.801 11.0472 775.144 4.84694C774.812 4.07191 774.48 3.18617 774.037 2.07898C774.812 1.96826 775.365 1.85754 775.808 1.85754C781.455 1.85754 787.101 1.85754 792.637 1.85754C794.187 1.85754 794.962 2.1897 795.295 3.85048C798.395 19.1296 800.498 34.4088 797.398 49.9094C795.405 60.0955 791.198 69.1744 781.787 74.5996C767.283 82.9035 749.236 76.1497 742.593 60.3169C738.385 50.1308 737.5 39.5018 738.275 28.8729C738.828 20.569 740.489 12.2651 741.485 3.9612C741.707 2.30042 742.482 1.74683 744.032 1.85754C746.357 1.85754 748.461 1.74683 751.229 1.74683Z" fill="white"/>
<path d="M889.184 39.2801C889.184 50.5734 889.184 61.756 889.184 73.0493C889.184 76.8137 889.184 76.8137 885.198 76.8137C882.652 76.8137 879.994 76.703 877.448 76.8137C875.455 76.9244 874.901 76.1494 875.012 74.2672C875.123 64.524 875.012 54.67 875.012 44.9268C875.012 31.6406 875.123 18.3543 874.901 5.06813C874.901 2.18945 875.787 1.41442 878.444 1.63585C881.102 1.85729 883.759 1.85729 886.416 1.63585C888.52 1.52514 889.073 2.30017 889.073 4.2931C889.073 16.0293 889.184 27.6547 889.184 39.2801Z" fill="white"/>
<path d="M322.843 2.08371C322.843 26.8847 322.843 51.5749 322.843 76.5973C318.303 76.5973 313.875 76.5973 309.003 76.5973C309.003 52.7928 309.003 28.8776 309.003 4.85167C304.132 5.18383 301.364 7.95179 299.038 11.1626C293.724 18.6915 291.288 27.4382 290.181 36.5172C289.517 42.6067 289.406 48.6962 291.62 54.5643C293.17 58.5501 295.606 61.5395 300.035 62.6467C300.699 62.8682 301.585 63.9754 301.585 64.6397C301.696 68.0719 301.585 71.5042 301.696 74.8258C301.696 76.2651 301.253 76.8187 299.813 76.8187C294.388 76.8187 288.963 76.708 283.538 76.8187C281.545 76.8187 281.323 75.4901 280.991 74.2722C274.459 54.5643 268.037 34.8564 261.505 15.1485C261.062 13.9306 260.619 12.8234 260.287 11.6055C260.066 11.6055 259.844 11.7162 259.623 11.7162C259.623 12.8234 259.623 13.8199 259.623 14.9271C259.623 34.3028 259.623 53.6785 259.623 73.0543C259.623 73.8293 259.733 74.6043 259.512 75.2686C259.291 75.8222 258.737 76.2651 258.405 76.8187C257.962 76.3758 257.408 75.9329 257.187 75.3794C256.965 75.0472 257.187 74.4936 257.187 74.0507C257.187 50.9106 257.187 27.7704 257.187 4.63024C257.187 3.85521 257.298 2.96946 257.298 1.86227C261.616 1.86227 265.823 1.75156 270.03 1.97299C270.695 1.97299 271.691 3.52305 272.023 4.51952C276.784 18.1379 281.434 31.6456 286.084 45.2639C286.417 46.1497 286.749 47.1461 287.302 48.0319C286.306 37.7351 288.188 27.9918 292.063 18.5808C294.167 13.377 296.824 8.50538 301.364 5.07311C303.024 3.85521 305.017 2.52659 307.01 2.41587C312.103 1.86227 317.418 2.08371 322.843 2.08371Z" fill="white"/>
<path d="M422.6 11.8271C422.6 12.8236 422.6 13.8201 422.6 14.8165C422.6 34.303 422.6 53.7894 422.6 73.1652C422.6 73.9402 422.711 74.826 422.49 75.601C422.379 76.0439 421.825 76.7082 421.604 76.5975C421.05 76.4867 420.497 76.0439 420.275 75.601C420.054 75.1581 420.165 74.4938 420.165 73.9402C420.165 50.8 420.165 27.6599 420.165 4.51972C420.165 3.63397 420.829 2.6375 421.05 1.75175C421.825 2.52678 422.932 3.08038 423.375 3.96612C429.354 16.2559 435.001 28.6563 441.312 40.7247C445.187 48.1428 450.944 54.2323 458.473 58.3289C461.13 59.7682 464.009 60.654 467.331 62.0933C467.331 60.3218 467.331 59.2147 467.331 58.2182C467.331 40.5032 467.331 22.7883 467.331 5.07331C467.331 2.6375 467.884 1.53032 470.541 1.75175C473.199 1.97319 475.856 1.97319 478.513 1.75175C480.838 1.53032 481.392 2.52678 481.392 4.74115C481.281 22.124 481.392 39.6175 481.392 57.0003C481.392 62.6469 481.281 68.2936 481.503 73.8295C481.613 76.376 480.728 76.9296 478.292 76.9296C467.884 76.8189 457.477 76.8189 447.069 76.9296C444.855 76.9296 443.858 76.2653 443.194 74.1616C436.883 54.2323 430.351 34.303 423.929 14.3737C423.597 13.4879 423.375 12.7129 423.043 11.8271C422.932 11.8271 422.822 11.8271 422.6 11.8271Z" fill="white"/>
<path d="M546.937 1.75154C540.737 17.2521 530.108 27.3275 515.604 33.9706C517.375 33.9706 519.147 33.9706 520.918 33.9706C526.454 33.9706 531.99 33.8599 537.526 34.0813C538.523 34.0813 539.962 34.7456 540.294 35.5207C546.384 48.9176 552.252 62.3146 558.12 75.7115C558.23 75.8222 558.12 76.0436 558.23 76.8187C553.912 76.8187 549.705 76.9294 545.387 76.708C544.723 76.708 544.058 75.3793 543.616 74.4936C540.183 66.9647 536.862 59.5466 533.54 52.0177C529.887 43.8246 523.576 38.953 514.94 37.0707C513.5 36.7386 512.061 36.7386 510.289 36.5171C510.179 37.9565 510.179 38.953 510.179 40.0601C510.179 51.132 510.179 62.2038 510.179 73.2757C510.179 76.8187 510.179 76.8187 506.525 76.8187C503.203 76.8187 499.882 76.8187 496.339 76.8187C496.228 75.6008 496.117 74.6043 496.117 73.6078C496.117 50.6891 496.117 27.6597 496.007 4.74094C496.007 2.30513 496.56 1.41938 499.107 1.64082C501.985 1.86225 504.864 1.75154 507.632 1.64082C509.625 1.5301 510.179 2.30513 510.068 4.18734C509.957 12.3805 510.068 20.5737 510.068 28.7669C510.068 29.7633 510.179 30.7598 510.179 31.867C515.936 31.3134 520.033 28.1025 523.797 24.5595C530.108 18.47 535.422 11.7162 538.19 3.19088C538.412 2.52657 539.187 1.75154 539.74 1.75154C542.066 1.64082 544.169 1.75154 546.937 1.75154Z" fill="white"/>
<path d="M370.009 78.0366C348.53 77.8152 331.368 60.3216 331.59 38.7315C331.811 17.4736 349.416 0.201487 370.563 0.533642C392.042 0.75508 409.204 18.1379 408.982 39.6173C408.871 60.986 391.378 78.258 370.009 78.0366ZM361.595 8.72681C346.315 8.94825 338.565 17.3629 339.894 30.7598C340.89 40.8352 345.651 49.1391 352.626 56.2251C360.266 63.9754 369.234 69.2898 380.527 69.9542C385.288 70.2863 389.939 69.2898 393.814 66.1897C400.125 61.2074 401.785 54.4536 400.678 46.814C398.907 34.6349 392.374 25.3346 382.853 17.9165C375.988 12.4912 368.459 8.94825 361.595 8.72681Z" fill="white"/>
<path d="M52.1361 76.8183C52.1361 52.571 52.1361 28.7665 52.1361 4.85131C47.5966 5.18346 44.718 7.72999 42.5036 10.9408C36.1926 20.0197 33.5354 30.2058 33.2032 41.167C32.9818 46.4815 33.314 51.6852 35.7498 56.5568C37.4105 59.657 39.7356 61.7606 43.1679 62.6464C43.8322 62.7571 44.718 63.7535 44.8287 64.3071C44.9394 68.293 44.9394 72.3896 44.9394 76.9291C40.9535 76.9291 37.1891 76.9291 33.5354 76.9291C30.6567 76.9291 27.2244 77.5934 25.2315 76.2647C23.3493 74.9361 23.1279 71.3931 22.2421 68.7359C16.2633 50.6888 10.3952 32.6417 4.41644 14.5945C4.08428 13.5981 3.64141 12.6016 2.64494 11.7159C2.64494 12.7123 2.64494 13.5981 2.64494 14.5945C2.64494 34.1917 2.64494 53.6782 2.64494 73.2753C2.64494 74.0504 2.75566 74.9361 2.53422 75.7112C2.4235 76.154 1.75919 76.7076 1.31632 76.7076C0.873446 76.7076 0.430572 76.0433 0.0984164 75.6004C-0.123021 75.2683 0.0984164 74.7147 0.0984164 74.2718C0.0984164 50.9102 0.0984164 27.6593 0.0984164 4.29772C0.0984164 3.6334 0.209135 2.85838 0.209135 1.75119C4.52716 1.75119 8.73446 1.64047 12.9418 1.86191C13.7168 1.86191 14.6025 3.30125 14.9347 4.29772C19.5849 17.8054 24.235 31.2023 28.8852 44.71C29.2174 45.7064 29.6603 46.8136 30.546 47.8101C30.546 43.8242 30.2138 39.7276 30.6567 35.7418C31.7639 26.1093 34.5319 17.0303 40.3999 9.05861C43.9429 4.187 48.4824 1.41903 54.6826 1.75119C57.3399 1.86191 59.9971 1.75119 62.6544 1.75119C66.3081 1.75119 66.3081 1.75119 66.3081 5.29418C66.3081 26.5521 66.3081 47.9208 66.3081 69.1788C66.3081 76.8183 66.3081 76.8183 58.7792 76.8183C56.6756 76.8183 54.6826 76.8183 52.1361 76.8183Z" fill="white"/>
<path d="M145.25 76.9293C145.25 51.6855 145.25 26.9953 145.25 2.41576C145.472 2.30505 145.693 2.08361 145.804 2.08361C157.872 1.86217 170.051 0.754987 181.345 6.40163C194.188 12.934 201.274 23.3416 201.938 37.735C202.602 52.0176 197.288 63.4217 184.888 71.172C182.452 72.6113 179.794 73.7185 177.027 74.6042C166.73 77.9258 156.101 76.5972 145.25 76.9293ZM147.686 16.2556C147.686 31.6454 147.686 47.0353 147.686 62.5359C148.35 62.6466 148.904 62.8681 149.458 62.8681C157.319 62.8681 165.18 63.2002 172.93 62.7573C177.137 62.5359 181.566 61.5394 185.441 59.8787C196.181 55.5606 201.827 44.3781 198.949 33.8598C196.181 23.7844 188.763 18.1378 179.13 16.8092C168.944 15.3698 158.537 16.1449 148.24 15.9234C148.24 15.9234 148.018 16.0341 147.686 16.2556Z" fill="white"/>
<path d="M74.7227 76.3755C75.0549 75.4897 75.387 74.4932 75.7192 73.6075C80.8122 60.3213 85.6838 47.0351 90.8876 33.8596C94.9842 23.7842 95.5378 13.7088 92.1055 3.30125C91.9948 2.96909 92.1055 2.52622 91.9948 1.75119C96.4235 1.75119 100.742 1.64047 105.06 1.86191C105.613 1.86191 106.277 3.30125 106.61 4.187C115.246 25.6664 123.882 47.1458 132.407 68.6252C133.404 71.1717 134.4 73.7182 135.618 76.8183C130.414 76.8183 125.653 76.9291 120.892 76.7076C120.228 76.7076 119.453 75.0468 119.121 73.9397C117.128 67.9609 113.474 63.2 108.049 59.8784C97.9736 53.5674 84.6874 57.7747 79.9265 68.7359C79.0407 70.9503 78.2657 73.2753 77.2692 75.379C76.9371 76.0433 75.9406 76.4862 75.2763 76.9291C75.1656 76.8183 74.9442 76.5969 74.7227 76.3755ZM98.8593 19.6876C94.652 30.538 90.7769 40.6134 86.791 51.0209C97.5307 51.5745 107.163 54.2318 115.356 61.207C109.931 47.6994 104.506 34.081 98.8593 19.6876Z" fill="white"/>
</svg>
