<?xml version="1.0" encoding="utf-8"?>
<!-- Generator: Adobe Illustrator 24.2.3, SVG Export Plug-In . SVG Version: 6.00 Build 0)  -->
<svg version="1.1" id="Layer_1" xmlns="http://www.w3.org/2000/svg" xmlns:xlink="http://www.w3.org/1999/xlink" x="0px" y="0px"
	 viewBox="0 0 145 150" style="enable-background:new 0 0 145 150;" xml:space="preserve">
<style type="text/css">
	.st0{fill:#FFFFFF;}
</style>
<path class="st0" d="M130.2,60.9c-8.9-17.1-27.3-28.6-45.9-28.6H9.2v87.4h75.2c18.9,0,37.5-11.8,46.2-29.4l0.1-0.3
	c2.3-4.3,3.4-9.2,3.4-14.1C134.2,70.7,132.8,65.5,130.2,60.9z M130.7,77.7c-0.9,11.9-13.7,21.2-25.8,21.2h-9.5H12.6h-0.4V76V53h82.7
	h10c12.2,0,25,9.5,25.8,21.4c0,0.5,0.1,1,0.1,1.5c0,0,0,0,0,0.1l0,0c0,0,0,0.1,0,0.1C130.7,76.6,130.7,77.1,130.7,77.7z"/>
</svg>
