<?xml version="1.0" encoding="utf-8"?>
<!-- Generator: Adobe Illustrator 24.2.3, SVG Export Plug-In . SVG Version: 6.00 Build 0)  -->
<svg version="1.1" id="Layer_1" xmlns="http://www.w3.org/2000/svg" xmlns:xlink="http://www.w3.org/1999/xlink" x="0px" y="0px"
	 viewBox="0 0 143 150" style="enable-background:new 0 0 143 150;" xml:space="preserve">
<style type="text/css">
	.st0{fill:#FFFFFF;}
</style>
<path class="st0" d="M6.6,79.9L6.5,82c0,0.2,0,0.4,0,0.6h0l0,0.6c0,2.5,0.7,4.2,2,5.4c2.3,1.9,5.9,1.9,11.5-0.2
	c1-0.4,2.5-0.9,4.4-1.6c60.7-22.5,96.5-30.5,106.5-23.5c1.3,0.9,2,2,2.3,3.4c0,0.2,0.1,0.4,0.1,0.7c0,0.5,0,1-0.1,1.3
	c-2.6,19-19.4,30.3-38.9,30.3H6.5v21.5h76.9c29.2,0,53-23.7,53-52.8c0-2.9-1.3-5.3-3.8-7c-7.1-4.9-24.7-3.5-52.5,4.1
	c-22.3,6.2-45.6,14.8-56.9,19l-1,0.4c-1.4,0.5-2.5,0.9-3.3,1.2c-4.2,1.5-7.2,1.8-8.4,0.7c-0.5-0.5-0.8-1.2-0.9-2.4
	c0-0.6,0-1.2,0.1-1.8c2.5-19,19.7-30.9,39-30.9l87.7,0V29.6H59.6C31,29.6,7.7,51.7,6.6,79.9z"/>
</svg>
